# xmcd
#
# Track frame offsets: 
#        150
#        5291
#        14446
#        37790
#        59293
#        77097
#        91495
#        93989
#        105551
#        135664
#        148788
#
# Disc length: 2492 seconds
#
# Revision: 0
# Processed by: cddbd v1.5.2PL0 Copyright (c) Steve Scherf et al.
# Submitted via: ExactAudioCopy v1.0b3
#
DISCID=8109ba0b
DTITLE=Taj Mahal - Recycling The Blues and Other Related Stuff
DYEAR=1972
DGENRE=Blues
TTITLE0=Conch: Introduction
TTITLE1=Kalimba
TTITLE2=Bound To Love Me Some
TTITLE3=Ricochet
TTITLE4=A Free Song (Rise Up Children Shake The Devil Out Of Your Soul
TTITLE4=)
TTITLE5=Corinna
TTITLE6=Conch: Close
TTITLE7=Cakewalk Into Town
TTITLE8=Sweet Home Chicago
TTITLE9=Texas Woman Blues
TTITLE10=Gitano Negro
EXTD=
EXTT0=
EXTT1=
EXTT2=
EXTT3=
EXTT4=
EXTT5=
EXTT6=
EXTT7=
EXTT8=
EXTT9=
EXTT10=
PLAYORDER=
